<svg xmlns="http://www.w3.org/2000/svg" xmlns:xlink="http://www.w3.org/1999/xlink" width="500" zoomAndPan="magnify" viewBox="0 0 375 374.999991" height="500" preserveAspectRatio="xMidYMid meet" version="1.0"><defs><g/><clipPath id="0e3c53ce7d"><path d="M 74.242188 109.128906 L 300.742188 109.128906 L 300.742188 190.878906 L 74.242188 190.878906 Z M 74.242188 109.128906 " clip-rule="nonzero"/></clipPath></defs><g clip-path="url(#0e3c53ce7d)"><path fill="#000000" d="M 229.171875 170.046875 L 242.976562 170.558594 C 244 166.464844 244 162.375 242.976562 158.796875 C 242.976562 158.285156 242.976562 157.773438 242.976562 157.773438 C 245.023438 158.796875 247.066406 159.820312 248.601562 159.820312 C 249.113281 163.910156 249.113281 167.488281 248.089844 171.066406 C 252.691406 171.578125 256.269531 172.601562 259.339844 174.648438 C 261.382812 176.179688 262.917969 178.226562 263.941406 180.78125 L 298.199219 180.78125 C 299.222656 180.78125 300.753906 181.804688 300.753906 183.339844 C 300.753906 184.875 299.222656 185.894531 298.199219 185.894531 L 265.476562 185.894531 C 265.476562 186.40625 265.476562 186.917969 265.476562 186.917969 C 265.988281 189.476562 263.941406 190.496094 261.894531 191.007812 C 260.875 191.007812 259.851562 191.007812 258.316406 191.007812 L 220.992188 191.007812 C 217.921875 191.007812 214.855469 190.496094 212.296875 188.964844 C 211.277344 187.941406 209.742188 186.917969 208.71875 185.894531 C 203.09375 185.894531 199.003906 185.894531 195.9375 185.894531 C 192.867188 185.894531 188.265625 185.894531 182.640625 185.894531 C 181.109375 187.941406 179.0625 189.988281 176.507812 191.007812 L 134.578125 191.007812 C 133.554688 189.988281 132.023438 188.964844 131 187.941406 C 131 187.429688 130.488281 186.917969 129.976562 185.894531 L 76.800781 185.894531 C 75.265625 185.894531 74.242188 184.875 74.242188 183.339844 C 74.242188 181.804688 75.265625 180.78125 76.800781 180.78125 L 104.410156 180.78125 C 100.320312 177.714844 96.742188 172.601562 94.695312 166.464844 C 92.140625 158.285156 91.628906 146.523438 99.296875 143.96875 C 101.855469 142.945312 106.96875 143.457031 111.058594 143.457031 C 113.105469 143.457031 114.636719 143.457031 115.660156 143.457031 C 119.238281 142.945312 123.328125 133.230469 128.441406 130.164062 C 136.113281 124.539062 150.429688 125.050781 159.121094 128.117188 C 163.210938 129.140625 166.28125 131.695312 169.347656 135.277344 C 174.460938 136.296875 179.574219 137.320312 184.175781 137.320312 C 188.777344 137.832031 193.378906 137.320312 196.960938 136.808594 C 206.675781 134.253906 214.855469 133.230469 222.011719 134.253906 C 240.933594 136.808594 244 154.195312 260.875 150.105469 C 264.964844 149.082031 268.03125 147.035156 271.097656 144.480469 C 273.65625 141.410156 275.191406 138.34375 275.703125 134.253906 C 276.722656 130.164062 276.210938 126.582031 274.679688 123.003906 C 273.144531 119.425781 270.589844 116.359375 267.007812 114.3125 C 265.988281 113.289062 265.476562 111.753906 266.496094 110.222656 C 267.519531 109.199219 269.054688 108.6875 270.078125 109.710938 C 274.167969 112.265625 277.746094 116.359375 279.28125 120.960938 C 281.324219 125.050781 282.347656 130.164062 281.324219 135.277344 C 280.304688 139.878906 278.257812 144.480469 274.679688 148.058594 C 271.609375 151.636719 267.007812 154.195312 262.40625 155.21875 C 241.953125 160.332031 238.886719 141.921875 220.992188 139.367188 C 214.855469 138.855469 207.183594 139.367188 198.492188 141.921875 C 193.890625 142.945312 188.777344 142.945312 183.664062 142.945312 C 180.085938 142.433594 176.507812 141.921875 172.925781 141.410156 C 173.949219 144.480469 174.972656 147.546875 174.972656 150.617188 C 174.972656 154.707031 173.4375 158.285156 171.394531 160.839844 C 173.4375 161.351562 175.996094 162.375 178.039062 163.398438 C 180.597656 164.933594 182.640625 166.976562 183.664062 169.535156 C 185.199219 172.089844 185.710938 174.648438 185.710938 177.714844 C 185.710938 178.738281 185.710938 179.761719 185.199219 180.78125 C 188.265625 180.78125 191.847656 180.78125 195.9375 180.78125 C 199.515625 180.78125 202.582031 180.78125 205.140625 180.78125 C 204.628906 178.738281 204.117188 176.179688 204.117188 174.136719 C 204.117188 171.066406 204.628906 168 206.164062 165.445312 C 207.695312 162.886719 209.742188 160.839844 212.296875 159.308594 C 214.855469 157.773438 217.921875 157.261719 220.992188 157.261719 C 222.523438 157.261719 223.546875 158.285156 223.546875 159.820312 C 223.546875 161.351562 222.523438 162.375 220.992188 162.375 C 218.945312 162.375 216.898438 162.886719 215.367188 163.910156 C 213.320312 164.933594 211.789062 166.464844 210.765625 168.511719 C 209.742188 170.046875 209.230469 172.089844 209.230469 174.136719 C 209.230469 176.179688 209.742188 178.226562 210.765625 179.761719 C 211.789062 181.804688 213.320312 183.339844 215.367188 184.363281 C 216.898438 185.382812 218.945312 185.894531 220.992188 185.894531 L 258.316406 185.894531 C 258.828125 185.894531 259.339844 185.894531 259.851562 185.894531 C 259.339844 182.828125 257.804688 180.78125 256.269531 179.25 C 253.714844 177.203125 250.648438 176.179688 246.554688 176.179688 L 244.511719 176.179688 L 229.171875 175.160156 C 227.636719 175.160156 226.617188 174.136719 226.617188 172.601562 C 226.617188 171.066406 227.636719 170.046875 229.171875 170.046875 Z M 106.457031 157.261719 C 108.5 155.21875 109.523438 151.636719 108.5 148.570312 C 109.523438 148.570312 110.546875 148.570312 111.058594 148.570312 C 114.125 149.082031 116.683594 148.570312 118.726562 148.058594 C 124.351562 146.011719 125.375 138.34375 131 134.253906 C 137.648438 130.164062 150.429688 130.675781 157.078125 132.71875 C 164.746094 135.277344 169.347656 142.945312 169.347656 150.617188 C 169.347656 155.21875 167.304688 158.285156 163.722656 160.332031 C 157.589844 164.421875 151.964844 164.421875 152.476562 156.238281 L 152.476562 140.902344 C 152.476562 139.367188 151.453125 137.832031 149.917969 137.832031 C 148.382812 137.832031 146.851562 139.367188 146.851562 140.902344 L 146.851562 155.730469 C 146.339844 167.488281 154.519531 170.558594 164.234375 166.464844 C 171.394531 163.910156 180.597656 169.535156 180.597656 177.203125 C 180.085938 179.25 179.574219 181.292969 178.550781 182.316406 C 177.527344 183.851562 176.507812 184.875 174.972656 185.894531 L 136.625 185.894531 C 136.113281 185.382812 135.601562 185.382812 135.601562 184.875 C 135.089844 184.363281 135.089844 183.851562 135.089844 183.339844 C 134.578125 182.316406 135.089844 181.804688 135.089844 181.292969 C 135.601562 180.78125 135.601562 180.273438 136.113281 179.761719 L 136.625 179.761719 C 138.15625 178.226562 139.691406 177.203125 141.738281 176.691406 C 143.78125 175.667969 145.828125 175.667969 147.875 175.667969 C 152.984375 175.667969 157.589844 175.667969 162.191406 175.667969 C 163.722656 175.667969 165.257812 174.136719 165.257812 173.113281 C 165.257812 171.578125 163.722656 170.046875 162.191406 170.046875 C 157.589844 170.046875 152.984375 170.046875 147.875 170.046875 C 145.316406 170.046875 142.25 170.558594 139.691406 171.578125 C 137.136719 172.601562 135.089844 173.625 133.046875 175.667969 C 131.511719 176.691406 131 177.714844 129.976562 179.25 C 129.976562 179.761719 129.976562 180.273438 129.464844 180.78125 L 119.238281 180.78125 C 120.261719 179.761719 121.796875 178.226562 123.328125 176.691406 C 124.351562 175.160156 125.375 173.625 125.886719 171.578125 L 129.464844 172.089844 C 131 172.601562 132.535156 171.578125 133.046875 170.046875 C 133.046875 169.023438 132.535156 167.488281 131 166.976562 L 120.773438 164.421875 C 119.238281 164.421875 117.707031 164.933594 117.707031 166.464844 C 117.195312 168 118.21875 169.535156 119.238281 169.535156 L 120.773438 170.046875 C 120.261719 171.066406 119.75 172.601562 119.238281 173.625 C 111.058594 183.339844 102.878906 174.136719 99.808594 164.933594 C 99.296875 163.398438 98.785156 161.863281 98.277344 159.820312 C 101.34375 160.332031 104.410156 159.308594 106.457031 157.261719 Z M 132.023438 146.011719 C 132.023438 147.035156 132.535156 148.058594 133.046875 148.570312 C 133.554688 149.082031 134.578125 149.59375 135.089844 149.59375 C 136.113281 150.105469 137.136719 150.105469 137.648438 149.59375 C 138.667969 149.59375 139.179688 149.082031 139.691406 148.058594 C 140.714844 147.035156 142.25 147.035156 143.269531 147.546875 C 144.804688 148.570312 144.804688 150.105469 143.78125 151.636719 C 142.761719 153.171875 141.226562 154.195312 139.179688 154.707031 C 137.648438 155.21875 135.601562 155.21875 134.066406 154.707031 C 132.023438 154.195312 130.488281 153.171875 128.953125 152.148438 C 127.933594 150.617188 126.910156 149.082031 126.910156 147.035156 C 126.398438 145.503906 127.933594 143.96875 128.953125 143.96875 C 130.488281 143.96875 132.023438 144.992188 132.023438 146.011719 Z M 132.023438 146.011719 " fill-opacity="1" fill-rule="evenodd"/></g><g fill="#000000" fill-opacity="1"><g transform="translate(73.625675, 254.164608)"><g><path d="M 21.625 0 L 20.453125 -3.921875 L 10.703125 -3.921875 L 9.53125 0 L 0.40625 0 L 10.546875 -27.796875 L 20.9375 -27.796875 L 31.078125 0 Z M 12.5625 -10.140625 L 18.59375 -10.140625 L 15.671875 -20.046875 L 15.515625 -20.046875 Z M 12.5625 -10.140625 "/></g></g></g><g fill="#000000" fill-opacity="1"><g transform="translate(112.902494, 254.164608)"><g><path d="M 15.03125 -27.796875 C 24.757812 -27.796875 29.625 -23.164062 29.625 -13.90625 C 29.625 -4.632812 24.757812 0 15.03125 0 L 2.984375 0 L 2.984375 -27.796875 Z M 11.921875 -6.671875 L 14.875 -6.671875 C 18.613281 -6.671875 20.484375 -8.675781 20.484375 -12.6875 L 20.484375 -15.109375 C 20.484375 -19.117188 18.613281 -21.125 14.875 -21.125 L 11.921875 -21.125 Z M 11.921875 -6.671875 "/></g></g></g><g fill="#000000" fill-opacity="1"><g transform="translate(152.179312, 254.164608)"><g><path d="M 16.8125 -28.28125 C 21.601562 -28.28125 25.304688 -27.054688 27.921875 -24.609375 C 30.535156 -22.160156 31.84375 -18.59375 31.84375 -13.90625 C 31.84375 -9.21875 30.535156 -5.644531 27.921875 -3.1875 C 25.304688 -0.738281 21.601562 0.484375 16.8125 0.484375 C 12.007812 0.484375 8.304688 -0.734375 5.703125 -3.171875 C 3.109375 -5.609375 1.8125 -9.1875 1.8125 -13.90625 C 1.8125 -18.613281 3.109375 -22.1875 5.703125 -24.625 C 8.304688 -27.0625 12.007812 -28.28125 16.8125 -28.28125 Z M 16.8125 -21.625 C 14.894531 -21.625 13.4375 -21.039062 12.4375 -19.875 C 11.445312 -18.71875 10.953125 -17.15625 10.953125 -15.1875 L 10.953125 -12.609375 C 10.953125 -10.640625 11.445312 -9.078125 12.4375 -7.921875 C 13.4375 -6.765625 14.894531 -6.1875 16.8125 -6.1875 C 18.71875 -6.1875 20.175781 -6.765625 21.1875 -7.921875 C 22.195312 -9.078125 22.703125 -10.640625 22.703125 -12.609375 L 22.703125 -15.1875 C 22.703125 -17.15625 22.195312 -18.71875 21.1875 -19.875 C 20.175781 -21.039062 18.71875 -21.625 16.8125 -21.625 Z M 16.8125 -21.625 "/></g></g></g><g fill="#000000" fill-opacity="1"><g transform="translate(193.678429, 254.164608)"><g><path d="M 16.96875 -28.28125 C 19.632812 -28.28125 22.03125 -27.875 24.15625 -27.0625 C 26.289062 -26.257812 27.984375 -25.066406 29.234375 -23.484375 C 30.484375 -21.910156 31.109375 -19.992188 31.109375 -17.734375 L 22.59375 -17.734375 C 22.59375 -18.890625 22.078125 -19.828125 21.046875 -20.546875 C 20.023438 -21.265625 18.785156 -21.625 17.328125 -21.625 C 15.234375 -21.625 13.644531 -21.0625 12.5625 -19.9375 C 11.488281 -18.820312 10.953125 -17.238281 10.953125 -15.1875 L 10.953125 -12.609375 C 10.953125 -10.554688 11.488281 -8.972656 12.5625 -7.859375 C 13.644531 -6.742188 15.234375 -6.1875 17.328125 -6.1875 C 18.785156 -6.1875 20.023438 -6.53125 21.046875 -7.21875 C 22.078125 -7.90625 22.59375 -8.785156 22.59375 -9.859375 L 16.28125 -9.859375 L 16.28125 -15.515625 L 31.109375 -15.515625 L 31.109375 0 L 26.5 0 L 25.625 -2.75 C 23.082031 -0.59375 19.765625 0.484375 15.671875 0.484375 C 11.066406 0.484375 7.601562 -0.71875 5.28125 -3.125 C 2.96875 -5.539062 1.8125 -9.132812 1.8125 -13.90625 C 1.8125 -18.613281 3.125 -22.1875 5.75 -24.625 C 8.382812 -27.0625 12.125 -28.28125 16.96875 -28.28125 Z M 16.96875 -28.28125 "/></g></g></g><g fill="#000000" fill-opacity="1"><g transform="translate(235.177546, 254.164608)"><g><path d="M 18.59375 -27.796875 C 20.3125 -27.796875 21.84375 -27.398438 23.1875 -26.609375 C 24.539062 -25.816406 25.59375 -24.722656 26.34375 -23.328125 C 27.09375 -21.941406 27.46875 -20.390625 27.46875 -18.671875 L 27.46875 -18.140625 C 27.46875 -16.421875 27.09375 -14.859375 26.34375 -13.453125 C 25.59375 -12.054688 24.539062 -10.957031 23.1875 -10.15625 C 21.84375 -9.363281 20.3125 -8.96875 18.59375 -8.96875 L 11.921875 -8.96875 L 11.921875 0 L 2.984375 0 L 2.984375 -27.796875 Z M 11.921875 -15.46875 L 15.59375 -15.46875 C 16.539062 -15.46875 17.25 -15.710938 17.71875 -16.203125 C 18.1875 -16.691406 18.421875 -17.351562 18.421875 -18.1875 L 18.421875 -18.5 C 18.421875 -19.363281 18.1875 -20.03125 17.71875 -20.5 C 17.25 -20.976562 16.539062 -21.21875 15.59375 -21.21875 L 11.921875 -21.21875 Z M 11.921875 -15.46875 "/></g></g></g><g fill="#000000" fill-opacity="1"><g transform="translate(272.191658, 254.164608)"><g><path d="M 18.984375 -20.6875 L 18.984375 0 L 10.0625 0 L 10.0625 -20.6875 L 0.921875 -20.6875 L 0.921875 -27.796875 L 28.078125 -27.796875 L 28.078125 -20.6875 Z M 18.984375 -20.6875 "/></g></g></g></svg>